<svg width="37" height="35" viewBox="0 0 37 35" fill="none" xmlns="http://www.w3.org/2000/svg">
<path d="M29.576 12.8988C30.9947 12.8981 32.3834 13.304 33.5754 14.0679C34.7673 14.8317 35.7117 15.921 36.2953 17.2048C36.8788 18.4886 37.0766 19.9124 36.8649 21.3051C36.6532 22.6978 36.041 24.0002 35.1018 25.0559V33.4678C35.1023 33.7027 35.042 33.9337 34.9268 34.1387C34.8116 34.3438 34.6453 34.5161 34.4438 34.639C34.2423 34.762 34.0124 34.8315 33.7761 34.841C33.5397 34.8504 33.3049 34.7995 33.0941 34.6931L32.9283 34.5925L29.576 32.2664L26.2237 34.5925C26.0301 34.7267 25.8051 34.8094 25.5702 34.8327C25.3352 34.856 25.0982 34.8191 24.8817 34.7256C24.6651 34.632 24.4764 34.485 24.3334 34.2984C24.1905 34.1118 24.098 33.892 24.065 33.6599L24.0521 33.4678V25.0522C23.1142 23.9966 22.5031 22.6947 22.2919 21.3027C22.0808 19.9108 22.2787 18.4879 22.8619 17.2049C23.445 15.9218 24.3887 14.8331 25.5796 14.0693C26.7706 13.3055 28.1582 12.899 29.576 12.8988ZM32.3389 26.9979C31.4611 27.3504 30.5229 27.5311 29.576 27.5301C28.6291 27.5311 27.691 27.3504 26.8132 26.9979V30.8364L28.7859 29.4703C28.9878 29.3298 29.224 29.2456 29.4698 29.2263C29.7156 29.207 29.9622 29.2534 30.1839 29.3606L30.3681 29.4703L32.3389 30.8364V26.9979ZM31.8784 0.105255C33.1683 0.105192 34.4096 0.593684 35.3492 1.47109C36.2887 2.3485 36.8557 3.54871 36.9345 4.82693L36.9437 5.13415L36.9456 14.7274C36.1986 13.7401 35.259 12.9123 34.1827 12.2935L34.1808 5.13415C34.1811 4.56825 33.9699 4.02236 33.5882 3.60214C33.2064 3.18191 32.6812 2.91721 32.1142 2.85926L31.8784 2.84829H5.17057C4.60057 2.84803 4.05074 3.05769 3.62747 3.43671C3.2042 3.81573 2.93759 4.33715 2.87922 4.90008L2.86817 5.13415V22.5067C2.86817 23.6898 3.77439 24.6645 4.93481 24.7797L5.17057 24.7925L21.6042 24.7944L21.8308 25.1656L22.0776 25.524L22.2084 25.6959L22.2065 27.5356H5.17057C3.8804 27.5356 2.63884 27.0469 1.69924 26.1691C0.759648 25.2913 0.192844 24.0906 0.114495 22.8121L0.105286 22.5067V5.13415C0.105222 3.85354 0.597249 2.62115 1.481 1.68836C2.36476 0.755559 3.57366 0.192632 4.86113 0.114399L5.17057 0.105255H31.8784ZM29.576 15.6418C28.3545 15.6418 27.183 16.1236 26.3193 16.9811C25.4556 17.8386 24.9703 19.0017 24.9703 20.2144C24.9703 21.4272 25.4556 22.5902 26.3193 23.4478C27.183 24.3053 28.3545 24.7871 29.576 24.7871C30.7976 24.7871 31.969 24.3053 32.8328 23.4478C33.6965 22.5902 34.1818 21.4272 34.1818 20.2144C34.1818 19.0017 33.6965 17.8386 32.8328 16.9811C31.969 16.1236 30.7976 15.6418 29.576 15.6418ZM17.1431 17.4705C17.4931 17.4706 17.83 17.6026 18.0857 17.8398C18.3415 18.0771 18.497 18.4018 18.5209 18.7485C18.5447 19.0952 18.4351 19.438 18.2143 19.7075C17.9934 19.9771 17.6777 20.1533 17.3309 20.2007L17.1431 20.2135H8.85442C8.50441 20.2134 8.16749 20.0814 7.91174 19.8442C7.65598 19.6069 7.50047 19.2822 7.47661 18.9355C7.45275 18.5888 7.56234 18.246 7.78321 17.9765C8.00409 17.7069 8.3198 17.5306 8.66654 17.4833L8.85442 17.4705H17.1431ZM28.1946 7.41269C28.5446 7.4128 28.8815 7.54481 29.1373 7.78204C29.393 8.01927 29.5485 8.34404 29.5724 8.69073C29.5963 9.03741 29.4867 9.38017 29.2658 9.64973C29.0449 9.91929 28.7292 10.0956 28.3825 10.1429L28.1946 10.1557H8.85442C8.50441 10.1556 8.16749 10.0236 7.91174 9.78638C7.65598 9.54915 7.50047 9.22438 7.47661 8.87769C7.45275 8.53101 7.56234 8.18826 7.78321 7.91869C8.00409 7.64913 8.3198 7.47286 8.66654 7.4255L8.85442 7.41269H28.1946Z" fill="white"/>
</svg>
