<svg width="21" height="20" viewBox="0 0 21 20" fill="none" xmlns="http://www.w3.org/2000/svg">
<path d="M15.92 10C16.0707 10.9939 16.0043 12.0087 15.7252 12.9745C15.4461 13.9403 14.961 14.8341 14.3033 15.5945C13.6456 16.3548 12.831 16.9635 11.9155 17.3788C10.9999 17.7941 10.0053 18.006 9 18C5.1 18 2 14.9 2 11C2 7.1 5.1 4 9 4C9.7 4 10.37 4.1 11 4.29V2.23C10.36 2.08 9.69 2 9 2C4 2 0 6 0 11C0 16 4 20 9 20C10.2677 20.0053 11.5221 19.7416 12.6803 19.2263C13.8386 18.711 14.8743 17.9559 15.7192 17.0108C16.5641 16.0657 17.199 14.9522 17.5818 13.7437C17.9646 12.5352 18.0867 11.2592 17.94 10H15.92Z" fill="white"/>
<path d="M18 3V0H16V3H13V5H16V8H18V5H21V3H18Z" fill="white"/>
</svg>
