<svg width="40" height="40" viewBox="0 0 40 40" fill="none" xmlns="http://www.w3.org/2000/svg">
<path d="M30 18.3333C30 16.735 28.8667 15.3983 27.365 15.0767C27.965 14.075 28.3333 12.9167 28.3333 11.6667C28.3333 7.99 25.3433 5 21.6667 5C19.1383 5 16.965 6.42833 15.8333 8.50667C14.7017 6.42833 12.5283 5 10 5C6.32334 5 3.33334 7.99 3.33334 11.6667C3.33334 13.17 3.85334 14.545 4.69501 15.66C4.27432 15.9676 3.93188 16.3699 3.69534 16.8343C3.45881 17.2987 3.3348 17.8122 3.33334 18.3333V31.6667C3.33334 33.505 4.82834 35 6.66668 35H26.6667C28.505 35 30 33.505 30 31.6667V27.27L36.6667 30.6033V18.9367L30 22.27V18.3333ZM21.6667 8.33333C23.505 8.33333 25 9.82833 25 11.6667C25 13.505 23.505 15 21.6667 15C19.8283 15 18.3333 13.505 18.3333 11.6667C18.3333 9.82833 19.8283 8.33333 21.6667 8.33333ZM10 8.33333C11.8383 8.33333 13.3333 9.82833 13.3333 11.6667C13.3333 13.505 11.8383 15 10 15C8.16168 15 6.66668 13.505 6.66668 11.6667C6.66668 9.82833 8.16168 8.33333 10 8.33333ZM6.66668 31.6667V18.3333H26.6667L26.67 31.6667H6.66668Z" fill="white"/>
</svg>
